<svg xmlns="http://www.w3.org/2000/svg" viewBox="0 0 512 512">
  <defs>
    <linearGradient id="bg" x1="0" x2="1" y1="0" y2="1">
      <stop offset="0%" stop-color="#0f172a"/>
      <stop offset="100%" stop-color="#1d4ed8"/>
    </linearGradient>
    <linearGradient id="storm" x1="0" x2="0" y1="0" y2="1">
      <stop offset="0%" stop-color="#e0f2fe"/>
      <stop offset="100%" stop-color="#93c5fd"/>
    </linearGradient>
  </defs>
  <rect width="512" height="512" rx="112" fill="url(#bg)"/>
  <path
    fill="url(#storm)"
    d="M133 118h246c-23 28-47 53-71 76-27 25-46 49-55 71h86c-31 37-67 72-109 103 11 12 17 27 17 43 0 16-6 32-17 46-23 28-64 47-123 55 42-23 67-47 76-72 9-26 4-47-16-63-14-11-35-18-63-22 54-26 96-55 126-88h-86c18-44 49-86 92-124-33 3-67 1-103-5z"
  />
  <circle cx="386" cy="146" r="38" fill="#f8fafc" fill-opacity=".22"/>
</svg>
